<?xml version="1.0" encoding="utf-8"?>
<!-- Generated by IcoMoon.io -->
<!DOCTYPE svg PUBLIC "-//W3C//DTD SVG 1.1//EN" "http://www.w3.org/Graphics/SVG/1.1/DTD/svg11.dtd">
<svg version="1.1" xmlns="http://www.w3.org/2000/svg" xmlns:xlink="http://www.w3.org/1999/xlink" width="27" height="27" viewBox="0 0 27 27">
	<path class="icon" d="M23.686 20.882l-5.102-5.102c0.77-1.265 1.212-2.747 1.212-4.336 0-4.612-3.997-8.609-8.61-8.609-4.612 0-8.351 3.74-8.351 8.351 0 4.613 3.996 8.61 8.609 8.61 1.534 0 2.97-0.416 4.205-1.138l5.129 5.13c0.504 0.502 1.316 0.502 1.817 0l1.273-1.272c0.501-0.502 0.319-1.134-0.182-1.635zM5.405 11.186c0-3.193 2.588-5.782 5.781-5.782 3.194 0 6.040 2.846 6.040 6.040s-2.588 5.782-5.782 5.782-6.039-2.846-6.039-6.040z" fill="#333333" />
</svg>
